PathFileType	4	(X/Y/Z)	C:\Users\chris\Documents\GitHub\baseballds\vids\pitch3_Sports2D\pitch3_Sports2D_m_person00.trc
DataRate	CameraRate	NumFrames	NumMarkers	Units	OrigDataRate	OrigDataStartFrame	OrigNumFrames
30	30	8	22	m	30	60	240
Frame#	Time	Hip			RHip			RKnee			RAnkle			RBigToe			RSmallToe			RHeel			LHip			LKnee			LAnkle			LBigToe			LSmallToe			LHeel			Neck			Head			Nose			RShoulder			RElbow			RWrist			LShoulder			LElbow			LWrist		
		X1	Y1	Z1	X2	Y2	Z2	X3	Y3	Z3	X4	Y4	Z4	X5	Y5	Z5	X6	Y6	Z6	X7	Y7	Z7	X8	Y8	Z8	X9	Y9	Z9	X10	Y10	Z10	X11	Y11	Z11	X12	Y12	Z12	X13	Y13	Z13	X14	Y14	Z14	X15	Y15	Z15	X16	Y16	Z16	X17	Y17	Z17	X18	Y18	Z18	X19	Y19	Z19	X20	Y20	Z20	X21	Y21	Z21	X22	Y22	Z22
60	2.0	0.5759720006838404	0.832194905965137	0.0	0.5490215365899435	0.8062369683090553	0.0	0.6292866404188865	0.380302282723057	0.0	0.5153602636494666	-0.023928311248984358	0.0	0.7078327653832533	-0.10227301722092404	0.0	0.6572166041949408	-0.1212693378161006	0.0	0.46865135306186084	-0.06851382880888555	0.0	0.6225312676569185	0.8081609113947429	0.0	0.6520137739865434	0.40417236598288464	0.0	0.6114860997074915	0.10555548048182867	0.0	0.777043228086544	-0.009864618513206639	0.0	0.7633013252810814	0.0248961758850068	0.0	0.5742031140666626	0.05746236612444844	0.0	0.796878816940925	1.3824936174462301	0.0	0.8808374171831291	1.6224784696336614	0.0	0.9614915364031559	1.4660528019396775	0.0	0.7139194460385414	1.2777390349544182	0.0	0.7808154880438698	0.9486945351261163	0.0	1.0526432916944808	0.9729281006564232	0.0	0.8040615384126037	1.2692912961246514	0.0	0.8455648635157087	1.0098139071173156	0.0	1.0535804430031943	0.9622938331155636	0.0
61	2.033333333333333	0.5788448315318163	0.8322167040031745	0.0	0.5508331666694901	0.8066953366741676	0.0	0.6276531409617101	0.37941875344676396	0.0	0.5123391689459631	-0.026418923227418897	0.0	0.706072203546588	-0.10831203226028471	0.0	0.6558756421495037	-0.12489580559266458	0.0	0.4645711612150373	-0.07252128754172478	0.0	0.6251585575139408	0.8076302823555517	0.0	0.6533353838568869	0.40342306800796546	0.0	0.6118260713125558	0.10186711839524186	0.0	0.7758996556528516	-0.011152605137681218	0.0	0.7622216111312105	0.023082130903424033	0.0	0.5729166881479969	0.05586137642155619	0.0	0.7927201566225267	1.3850466809948	0.0	0.8781760952363794	1.6242324308678175	0.0	0.9552494704495205	1.4665752219138564	0.0	0.7102005308602127	1.2787635824375922	0.0	0.7678496896079364	0.9519885044175684	0.0	1.0384406093110685	0.9715078507704593	0.0	0.793777289773977	1.2735867359561261	0.0	0.829734130897287	1.014096349907644	0.0	1.0330831999557921	0.96758632842954	0.0
62	2.0666666666666664	0.581971884750366	0.8304131257034809	0.0	0.5537541040792785	0.805268822264245	0.0	0.6259360827466062	0.3774677955018559	0.0	0.5102801070589709	-0.026405964706367396	0.0	0.7047608849031541	-0.1145125242685109	0.0	0.6578867247264231	-0.1293381844054614	0.0	0.46158063112718817	-0.07753143092534835	0.0	0.6295433433105767	0.8058553077787989	0.0	0.6560644354710219	0.4036003141451613	0.0	0.6111750345827257	0.09741818707855925	0.0	0.776906976561838	-0.011053923512192846	0.0	0.7621625234769872	0.02289349168497591	0.0	0.5702954468247409	0.05427191916024396	0.0	0.7876726176630585	1.387026760429169	0.0	0.8757905373516869	1.6236478707115047	0.0	0.9494186399258557	1.4664127984904618	0.0	0.707851943135218	1.2805669520502276	0.0	0.7537864997025926	0.9560535458390158	0.0	1.0169521703322304	0.9704407226782391	0.0	0.785654172941246	1.2778570487089063	0.0	0.8137992340257278	1.0178266304976014	0.0	1.013016048077453	0.9741038221698035	0.0
63	2.1	0.5848310215085277	0.8260803433384383	0.0	0.5571870581336195	0.8031474163651771	0.0	0.6262323140817624	0.37490499022440665	0.0	0.5081875239388807	-0.028638700700151638	0.0	0.6986997983658907	-0.12101043179804133	0.0	0.6531502009046463	-0.13553585892120648	0.0	0.4590672641483718	-0.08318038338070542	0.0	0.6348315671298738	0.8036291631416852	0.0	0.6583208704089448	0.4032995368103827	0.0	0.6081499933009255	0.09270948269579764	0.0	0.7768196093293374	-0.010595260978713888	0.0	0.7610844218948543	0.022470719770878757	0.0	0.5665273450864419	0.05076906516085336	0.0	0.7830573236197608	1.3882528160175955	0.0	0.8753245721710917	1.6211682115257886	0.0	0.9448081591037698	1.4641711023519701	0.0	0.7060365617743446	1.2856210227179665	0.0	0.7362703531143003	0.9589882259652465	0.0	0.9924309978057471	0.9706319326202436	0.0	0.7830577688692709	1.2801125196849321	0.0	0.7992056425990682	1.0173979607666657	0.0	0.9938120384253663	0.9753197529420785	0.0
64	2.1333333333333333	0.587800020312893	0.8203881938654366	0.0	0.5606397339020188	0.8002047129654852	0.0	0.6289167684925493	0.3715332352308075	0.0	0.5060324250962868	-0.03245724095922509	0.0	0.6901861982062723	-0.12718530154200441	0.0	0.6428656264849598	-0.14123505967972214	0.0	0.45617315158570654	-0.08625631987770953	0.0	0.6398577020531359	0.8004688758434606	0.0	0.658287018003008	0.4022411982585597	0.0	0.6059624338393008	0.09099019934063571	0.0	0.7735545286326757	-0.01151643654038064	0.0	0.7578417328339224	0.02093867601724665	0.0	0.5650301444807782	0.04922522169163564	0.0	0.780767054934409	1.38903138737382	0.0	0.8747868681032698	1.6190105744526853	0.0	0.941408865927713	1.4617479904432726	0.0	0.7036784665701925	1.2921245123647849	0.0	0.7126477473075107	0.9599757962528517	0.0	0.9670868820739332	0.9710124810248342	0.0	0.7838288015354171	1.281639392497306	0.0	0.785349796399563	1.0163740173434683	0.0	0.9738538885288351	0.9718870721311591	0.0
65	2.1666666666666665	0.5913871276631929	0.8155475033295818	0.0	0.5636955747959179	0.79576554295506	0.0	0.6316527509308179	0.36752644397114065	0.0	0.5044332116879601	-0.032834442655711865	0.0	0.6847646929723228	-0.1308521752092967	0.0	0.6351563390894857	-0.1430502685901297	0.0	0.4540974097686398	-0.08398209920330453	0.0	0.6441571816232284	0.7958765742682621	0.0	0.6562506837869135	0.4005174123756328	0.0	0.6070705938348709	0.09293850755216287	0.0	0.7683121219248065	-0.016118619303341998	0.0	0.7528344107188537	0.017082605907984678	0.0	0.5675071627280511	0.051443542597028075	0.0	0.7805987589500978	1.389494680629363	0.0	0.8718822542874717	1.6189388638702993	0.0	0.9385052271605508	1.4615475780633116	0.0	0.7009147360850915	1.297219290322293	0.0	0.6851746887617326	0.9606191103357737	0.0	0.9426340751903088	0.9696073531632304	0.0	0.7852361884387041	1.2837834670962187	0.0	0.7738039103764919	1.0185900653694753	0.0	0.9524732025889222	0.9678258870961698	0.0
66	2.2	0.5951739496140523	0.8128800850121037	0.0	0.565992439010956	0.7913535879927927	0.0	0.6319823069202649	0.36393813015212373	0.0	0.5037467734827515	-0.030926982246124644	0.0	0.6844583601553385	-0.13286850430757	0.0	0.6350769788098399	-0.1441841677681671	0.0	0.45437718476617217	-0.08187927470860347	0.0	0.6475581410911415	0.7919144408963571	0.0	0.6546849073294845	0.3982394680501709	0.0	0.607069998275466	0.09434623591442715	0.0	0.7654353065311048	-0.02173765196432465	0.0	0.7488494591203054	0.012936457563236782	0.0	0.567813566029106	0.05201809043179926	0.0	0.7804682850114291	1.389887262465563	0.0	0.8678559092819955	1.6205361820627393	0.0	0.9363047674262549	1.4629224063621205	0.0	0.6987785470946397	1.301102965272628	0.0	0.6596075020557612	0.9638477481187606	0.0	0.92146194688496	0.9668259938930093	0.0	0.7856045071781358	1.2868743559522597	0.0	0.763374141687139	1.0231523706595613	0.0	0.9297054481509208	0.967810487814266	0.0
67	2.2333333333333334	0.5981752436237264	0.812576126483413	0.0	0.5678983630915866	0.7896993483251421	0.0	0.6300495321234317	0.3619652774320966	0.0	0.5029561638667884	-0.032877615576883276	0.0	0.6854499191848518	-0.1364334051742981	0.0	0.6391269624482857	-0.1497104724707208	0.0	0.45532959976963366	-0.08655389236430805	0.0	0.6497705915629083	0.791504150885517	0.0	0.6549079275393006	0.3968301720587352	0.0	0.6019787624794554	0.09253658511485026	0.0	0.7663832237198773	-0.023458566404439947	0.0	0.7481622838356162	0.012251141219623693	0.0	0.5608596320003544	0.048258214327922926	0.0	0.7788815164625985	1.3907999467451708	0.0	0.864778485748609	1.6222939347574314	0.0	0.9352134794465874	1.4641398234603893	0.0	0.6975184092356881	1.3036574005147705	0.0	0.6391144258758755	0.9703321208039808	0.0	0.902348028029528	0.9649003197428757	0.0	0.7840761112620906	1.2906487486381775	0.0	0.7505222893612841	1.0283414527961028	0.0	0.9056351113920545	0.9735315230611634	0.0
